<svg width="300" height="80" viewBox="0 0 300 80" fill="none" 
    xmlns="http://www.w3.org/2000/svg">
    <rect x="1.63934" y="1.63934" width="250" height="76.7213" fill="white" stroke="black" stroke-width="3.27869"/>
    <path d="M29.6918 55.7573V27.6655H43.3442C51.2131 27.6655 55.1475 30.7474 55.1475 36.9114C55.1475 40.0589 54.1377 42.4064 52.118 43.954C50.0983 45.4753 47.0164 46.236 42.8721 46.236H35.9082V55.7573H29.6918ZM42.8328 41.3179C44.9311 41.3179 46.4656 40.9638 47.4361 40.2556C48.4065 39.5212 48.8918 38.3933 48.8918 36.872C48.8918 35.3769 48.4197 34.2884 47.4754 33.6064C46.5311 32.9245 45.0098 32.5835 42.9115 32.5835H35.9082V41.3179H42.8328ZM67.9006 55.7573V44.5441L56.0186 27.6655H63.0613L71.1268 39.4687L79.2711 27.6655H86.0776L74.1957 44.5441V55.7573H67.9006ZM115.475 46.0392C115.03 49.3704 113.521 51.9409 110.951 53.7507C108.407 55.5605 105.036 56.4655 100.839 56.4655C97.6919 56.4655 94.9378 55.8884 92.5771 54.7343C90.2165 53.5802 88.3935 51.8884 87.1083 49.6589C85.823 47.4294 85.1804 44.7802 85.1804 41.7114C85.1804 38.7999 85.7968 36.2425 87.0296 34.0392C88.2886 31.8097 90.0984 30.0786 92.4591 28.8458C94.8198 27.5868 97.6001 26.9573 100.8 26.9573C108.59 26.9573 113.325 30.1704 115.003 36.5966L108.748 37.3441C108.092 35.4819 107.135 34.1441 105.875 33.331C104.643 32.5179 102.951 32.1114 100.8 32.1114C97.9935 32.1114 95.7771 32.9638 94.1509 34.6687C92.5247 36.3737 91.7116 38.7212 91.7116 41.7114C91.7116 44.7278 92.5247 47.0884 94.1509 48.7933C95.7771 50.472 98.0329 51.3114 100.918 51.3114C103.253 51.3114 105.089 50.8786 106.426 50.013C107.764 49.1474 108.656 47.8228 109.102 46.0392H115.475ZM151.799 41.7114C151.799 44.6753 151.143 47.272 149.831 49.5015C148.546 51.7048 146.671 53.4228 144.205 54.6556C141.766 55.8622 138.854 56.4655 135.471 56.4655C132.218 56.4655 129.372 55.8884 126.933 54.7343C124.52 53.554 122.631 51.8622 121.267 49.6589C119.93 47.4294 119.261 44.7802 119.261 41.7114C119.261 38.7474 119.903 36.1638 121.189 33.9605C122.5 31.731 124.376 30.013 126.815 28.8064C129.281 27.5737 132.205 26.9573 135.589 26.9573C138.841 26.9573 141.674 27.5474 144.087 28.7278C146.526 29.8819 148.415 31.5737 149.753 33.8032C151.117 36.0064 151.799 38.6425 151.799 41.7114ZM145.267 41.7114C145.267 38.6687 144.415 36.3081 142.71 34.6294C141.005 32.9507 138.605 32.1114 135.51 32.1114C132.441 32.1114 130.054 32.9638 128.349 34.6687C126.644 36.3474 125.792 38.695 125.792 41.7114C125.792 44.754 126.644 47.1146 128.349 48.7933C130.054 50.472 132.454 51.3114 135.549 51.3114C138.618 51.3114 141.005 50.472 142.71 48.7933C144.415 47.0884 145.267 44.7278 145.267 41.7114ZM179.253 55.7573L163.004 36.1245V55.7573H156.984V27.6655H162.729L178.978 47.2982V27.6655H184.997V55.7573H179.253Z" fill="black"/>
    <rect x="217.213" y="1.63934" width="81.1475" height="76.7213" fill="#9473B0" stroke="black" stroke-width="3.27869"/>
    <path d="M242.649 55.7573V35.2196L236.236 39.154L233.561 34.9048L243.515 28.5704H248.669V55.7573H242.649ZM270.198 55.7573V35.2196L263.785 39.154L261.109 34.9048L271.064 28.5704H276.218V55.7573H270.198Z" fill="black"/>
</svg>
